HIERARCHY
ROOT Hips
{
	OFFSET 0.00000 0.00000 0.00000
	CHANNELS 6 Xposition Yposition Zposition Zrotation Yrotation Xrotation 
	JOINT LHipJoint
	{
		OFFSET 0 0 0
		CHANNELS 3 Zrotation Yrotation Xrotation
		JOINT LeftUpLeg
		{
			OFFSET 1.57338 -1.94743 0.52196
			CHANNELS 3 Zrotation Yrotation Xrotation
			JOINT LeftLeg
			{
				OFFSET 2.60333 -7.15259 0.00000
				CHANNELS 3 Zrotation Yrotation Xrotation
				JOINT LeftFoot
				{
					OFFSET 2.77855 -7.63400 0.00000
					CHANNELS 3 Zrotation Yrotation Xrotation
					JOINT LeftToeBase
					{
						OFFSET 0.19847 -0.54529 2.28466
						CHANNELS 3 Zrotation Yrotation Xrotation
						End Site
						{
							OFFSET 0.00000 -0.00000 1.17993
						}
					}
				}
			}
		}
	}
	JOINT RHipJoint
	{
		OFFSET 0 0 0
		CHANNELS 3 Zrotation Yrotation Xrotation
		JOINT RightUpLeg
		{
			OFFSET -1.61527 -1.94743 0.52196
			CHANNELS 3 Zrotation Yrotation Xrotation
			JOINT RightLeg
			{
				OFFSET -2.53829 -6.97390 0.00000
				CHANNELS 3 Zrotation Yrotation Xrotation
				JOINT RightFoot
				{
					OFFSET -2.80762 -7.71387 0.00000
					CHANNELS 3 Zrotation Yrotation Xrotation
					JOINT RightToeBase
					{
						OFFSET -0.30536 -0.83898 2.28801
						CHANNELS 3 Zrotation Yrotation Xrotation
						End Site
						{
							OFFSET -0.00000 -0.00000 1.21323
						}
					}
				}
			}
		}
	}
	JOINT LowerBack
	{
		OFFSET 0 0 0
		CHANNELS 3 Zrotation Yrotation Xrotation
		JOINT Spine
		{
			OFFSET -0.04381 1.99497 -0.19778
			CHANNELS 3 Zrotation Yrotation Xrotation
			JOINT Spine1
			{
				OFFSET -0.01959 2.01295 -0.04372
				CHANNELS 3 Zrotation Yrotation Xrotation
				JOINT Neck
				{
					OFFSET 0 0 0
					CHANNELS 3 Zrotation Yrotation Xrotation
					JOINT Neck1
					{
						OFFSET -0.05459 1.76913 0.09708
						CHANNELS 3 Zrotation Yrotation Xrotation
						JOINT Head
						{
							OFFSET 0.09461 1.77368 -0.11172
							CHANNELS 3 Zrotation Yrotation Xrotation
							End Site
							{
								OFFSET 0.03812 1.78157 -0.04834
							}
						}
					}
				}
				JOINT LeftShoulder
				{
					OFFSET 0 0 0
					CHANNELS 3 Zrotation Yrotation Xrotation
					JOINT LeftArm
					{
						OFFSET 3.50922 1.24034 -0.28866
						CHANNELS 3 Zrotation Yrotation Xrotation
						JOINT LeftForeArm
						{
							OFFSET 5.40188 -0.00000 0.00000
							CHANNELS 3 Zrotation Yrotation Xrotation
							JOINT LeftHand
							{
								OFFSET 3.68559 -0.00000 0.00000
								CHANNELS 3 Zrotation Yrotation Xrotation
								JOINT LeftFingerBase
								{
									OFFSET 0 0 0
									CHANNELS 3 Zrotation Yrotation Xrotation
									JOINT LeftHandIndex1
									{
										OFFSET 0.61753 -0.00000 0.00000
										CHANNELS 3 Zrotation Yrotation Xrotation
										End Site
										{
											OFFSET 0.49787 -0.00000 0.00000
										}
									}
								}
								JOINT LThumb
								{
									OFFSET 0 0 0
									CHANNELS 3 Zrotation Yrotation Xrotation
									End Site
									{
										OFFSET 0.50547 -0.00000 0.50547
									}
								}
							}
						}
					}
				}
				JOINT RightShoulder
				{
					OFFSET 0 0 0
					CHANNELS 3 Zrotation Yrotation Xrotation
					JOINT RightArm
					{
						OFFSET -2.95373 1.39649 -0.27346
						CHANNELS 3 Zrotation Yrotation Xrotation
						JOINT RightForeArm
						{
							OFFSET -6.10670 -0.00000 -0.00000
							CHANNELS 3 Zrotation Yrotation Xrotation
							JOINT RightHand
							{
								OFFSET -3.63052 -0.00000 0.00000
								CHANNELS 3 Zrotation Yrotation Xrotation
								JOINT RightFingerBase
								{
									OFFSET 0 0 0
									CHANNELS 3 Zrotation Yrotation Xrotation
									JOINT RightHandIndex1
									{
										OFFSET -0.58385 -0.00000 0.00000
										CHANNELS 3 Zrotation Yrotation Xrotation
										End Site
										{
											OFFSET -0.47071 -0.00000 0.00000
										}
									}
								}
								JOINT RThumb
								{
									OFFSET 0 0 0
									CHANNELS 3 Zrotation Yrotation Xrotation
									End Site
									{
										OFFSET -0.47790 -0.00000 0.47790
									}
								}
							}
						}
					}
				}
			}
		}
	}
}
MOTION
Frames: 14
Frame Time: 0.033333
7.8461 18.7915 5.0987 0 0 0 0 0 0 -21 0 0 0 0 0 0 0 0 0 0 0 0 0 0 21 0 0 0 0 0 0 0 0 0 0 0 0 0 0 0 0 0 0 0 0 0 0 -16 0 0 21 0 0 11 0 0 0 -8 0 0 0 0 0 0 0 0 0 0 0 0 0 0 0 0 0 0 0 0 8 0 0 0 0 0 0 0 0 0 0 0 0 0 0 0 0 0
7.8294 18.7925 5.0786 -2.4255 -81.1143 4.8352 0.0000 0.0000 0.0000 -19.2391 -6.6953 -5.4173 1.4649 7.6490 21.6529 0.7769 15.8694 -28.9062 0.1350 2.3678 6.5234 0.0000 0.0000 0.0000 22.4673 20.1027 -4.9146 -1.9039 -8.6629 24.7464 -0.4277 -13.6371 -23.7104 -0.0270 -1.0609 2.9163 0.4163 1.1114 5.4528 0.1920 1.4932 0.9792 -0.1422 0.7359 -2.0429 -3.8383 1.2551 -9.6458 4.5944 1.4676 15.4011 2.2087 0.8072 6.1858 0.0000 0.0000 0.0000 -88.4449 -0.0194 2.3666 8.1441 -13.7862 -0.9862 -0.0000 -0.0000 22.0483 22.3891 23.5634 9.3516 -7.1250 0.0000 -0.0000 -7.3208 55.0832 -1.8198 0.0000 0.0000 0.0000 82.4959 -7.6466 26.5426 -18.4399 28.7168 -4.7587 0.0000 0.0000 12.6917 -19.9912 3.6307 -1.3197 7.1250 -0.0000 -0.0000 5.0270 -26.1119 2.3098
7.8033 18.7945 5.0640 -2.8885 -81.2757 5.4494 0.0000 0.0000 0.0000 -19.1187 -6.6984 -5.4087 1.4487 7.6084 21.5308 0.7594 16.0242 -28.9476 0.1206 2.2389 6.1663 0.0000 0.0000 0.0000 22.6207 20.4051 -4.8052 -1.8867 -8.6260 24.6323 -0.4180 -13.7526 -23.7555 -0.0272 -1.0654 2.9287 0.6674 1.1099 5.4044 0.2174 1.5060 0.9692 -0.2567 0.7408 -2.0202 -3.7330 1.2351 -9.6782 4.5191 1.4405 15.3180 2.1644 0.7955 6.1681 -0.0000 -0.0000 0.0000 -88.5622 -0.2972 2.3377 8.4161 -14.2251 -1.0520 -0.0000 -0.0000 22.0465 21.8992 23.6851 9.1729 -7.1250 0.0000 -0.0000 -7.8797 55.1105 -1.9652 -0.0000 -0.0000 0.0000 82.5414 -7.5407 26.1142 -18.0689 28.2453 -4.5818 0.0000 0.0000 12.7783 -19.2494 3.6814 -1.2845 7.1250 -0.0000 -0.0000 5.5872 -26.0749 2.5742
7.7790 18.7965 5.0394 -3.6381 -81.3023 6.3838 0.0000 0.0000 0.0000 -18.9461 -7.2896 -5.4073 1.4738 7.6713 21.7200 0.8186 16.2291 -29.5762 0.1364 2.3805 6.5585 0.0000 0.0000 0.0000 22.7512 20.0609 -4.9692 -1.8406 -8.5258 24.3228 -0.3796 -13.6990 -23.3482 -0.0132 -0.7412 2.0369 0.9891 1.0437 5.4627 0.2648 1.4396 0.8746 -0.3861 0.7051 -2.1440 -3.7880 1.2019 -9.7437 4.6331 1.3793 15.4985 2.2084 0.7705 6.2376 0.0000 0.0000 0.0000 -88.5117 -0.4902 4.3079 8.6421 -14.5883 -1.1082 -0.0000 -0.0000 20.4307 22.2237 23.3849 9.2112 -7.1250 0.0000 -0.0000 -7.4247 54.8651 -1.8064 0.0000 0.0000 0.0000 82.6901 -7.6029 25.2820 -17.7697 27.8613 -4.4411 0.0000 0.0000 13.6221 -19.2190 4.0392 -1.4067 7.1250 -0.0000 -0.0000 5.5987 -25.6986 2.6289
7.7503 18.7985 5.0305 -0.2325 -81.4326 3.3318 0.0000 0.0000 0.0000 -19.4581 -7.2272 -5.5043 1.4384 7.5825 21.4529 0.8216 16.2771 -29.6476 0.1445 2.4495 6.7497 0.0000 0.0000 0.0000 22.1100 20.0980 -5.3447 -1.8705 -8.5910 24.5240 -0.4302 -13.3589 -23.4180 -0.0188 -0.8861 2.4353 0.6525 1.0502 5.1153 0.1819 1.4254 0.8605 -0.2746 0.7017 -1.9706 -3.8684 0.9803 -9.4772 4.7044 1.0698 15.3966 2.2158 0.6182 6.1720 0.0000 0.0000 0.0000 -88.6538 -0.8248 6.1706 8.9972 -15.1559 -1.1994 -0.0000 -0.0000 18.8727 22.5025 23.6106 9.4207 -7.1250 0.0000 -0.0000 -7.2205 55.1551 -1.8073 0.0000 0.0000 0.0000 82.3208 -7.7737 25.9916 -18.0203 28.1832 -4.5588 0.0000 0.0000 12.6818 -19.0591 3.4616 -1.1950 7.1250 -0.0000 -0.0000 5.7391 -26.3103 2.6131
7.7286 18.7941 4.9912 -2.6935 -81.6264 5.6607 0.0000 0.0000 0.0000 -19.0193 -7.6439 -5.0413 1.4165 7.5271 21.2866 0.8372 16.7104 -30.2113 0.1616 2.5901 7.1396 0.0000 0.0000 0.0000 22.7322 20.3666 -5.2373 -1.9075 -8.6707 24.7706 -0.4335 -13.3583 -23.4468 -0.0299 -1.1170 3.0708 1.0759 0.9961 5.4743 0.3144 1.3830 0.8484 -0.3803 0.6761 -2.1773 -4.4466 0.5800 -9.3329 5.2830 0.4985 15.6357 2.4539 0.3475 6.2433 -0.0000 0.0000 0.0000 -88.7244 -0.9618 8.2480 9.4681 -15.9033 -1.3255 -0.0000 -0.0000 17.1156 22.2043 23.4391 9.2222 -7.1250 0.0000 -0.0000 -7.4658 54.9174 -1.8260 -0.0000 0.0000 0.0000 82.6444 -7.3174 24.5955 -17.3054 27.2586 -4.2262 0.0000 0.0000 13.9339 -19.4677 3.7263 -1.3160 7.1250 -0.0000 -0.0000 5.4206 -26.0228 2.5034
7.6985 18.7916 4.9684 -2.1130 -81.8942 5.2286 0.0000 0.0000 0.0000 -19.0725 -7.7463 -4.9391 1.4025 7.4914 21.1797 0.9033 16.7862 -30.7282 0.1899 2.8068 7.7412 0.0000 0.0000 0.0000 22.6888 20.3934 -5.4381 -1.9353 -8.7300 24.9542 -0.4439 -13.1519 -23.3098 -0.0240 -1.0011 2.7519 0.8496 0.8398 5.2453 0.4803 1.1628 0.8544 -0.0635 0.5692 -2.0541 -4.9599 0.0542 -8.8488 5.2438 -0.1799 15.9767 2.4743 -0.0270 6.3024 0.0000 0.0000 0.0000 -89.1173 -0.9152 10.2391 10.1270 -16.9379 -1.5117 -0.0000 -0.0000 14.9487 22.7708 23.3727 9.4544 -7.1250 0.0000 -0.0000 -6.8496 54.9622 -1.6816 0.0000 0.0000 0.0000 82.1845 -6.9632 25.3500 -17.0703 26.9504 -4.1192 0.0000 0.0000 13.8514 -19.4417 3.5527 -1.2530 7.1250 -0.0000 -0.0000 5.4458 -26.2065 2.4917
7.6561 18.7879 4.9327 -0.8920 -82.1777 4.0111 0.0000 0.0000 0.0000 -19.1953 -7.6901 -4.6312 1.3757 7.4223 20.9726 0.9280 17.0042 -31.1163 0.1489 2.4864 6.8520 0.0000 0.0000 0.0000 22.7076 20.5402 -5.3559 -1.9605 -8.7832 25.1195 -0.4842 -12.9743 -23.4764 -0.0314 -1.1438 3.1446 0.7556 0.6355 4.9385 0.4423 0.8808 0.9207 -0.0261 0.4302 -1.8172 -5.4596 -1.1142 -9.0395 4.9613 -1.7276 17.4028 2.3534 -0.8423 6.8794 -0.0000 -0.0000 0.0000 -89.3855 -0.7155 10.7835 10.9633 -18.2320 -1.7644 -0.0000 -0.0000 13.9490 22.5494 23.4246 9.3732 -7.1250 0.0000 -0.0000 -7.1005 54.9715 -1.7453 -0.0000 -0.0000 0.0000 82.1758 -6.4590 25.8508 -16.9794 26.8306 -4.0780 0.0000 0.0000 13.7711 -18.5050 3.4049 -1.1388 7.1250 -0.0000 -0.0000 6.1616 -26.3805 2.7973
7.6081 18.7833 4.9031 0.2174 -82.9359 2.8024 0.0000 0.0000 0.0000 -19.4506 -7.9612 -3.8818 1.3393 7.3276 20.6897 1.0257 17.5844 -32.3326 0.1845 2.7664 7.6291 0.0000 0.0000 0.0000 22.6720 20.3420 -5.3741 -1.9957 -8.8571 25.3493 -0.5450 -12.1839 -23.1749 -0.0287 -1.0939 3.0071 0.5149 0.4582 4.9174 0.6095 0.6389 0.7296 0.2952 0.3115 -2.0076 -6.8001 -2.4174 -8.5664 4.6319 -3.3983 19.1597 2.3321 -1.8013 7.4814 -0.0000 -0.0000 0.0000 -89.9949 0.7500 11.4707 12.3204 -20.2834 -2.2121 -0.0000 -0.0000 11.2802 22.8965 24.0659 9.7720 -7.1250 0.0000 -0.0000 -6.9832 55.7082 -1.8415 -0.0000 -0.0000 0.0000 81.9822 -5.9076 25.4136 -16.5802 26.3010 -3.8995 0.0000 0.0000 15.2773 -18.8688 3.3656 -1.1494 7.1250 -0.0000 -0.0000 5.8871 -26.4149 2.6667
7.5694 18.7742 4.8486 0.9296 -83.8832 1.9649 0.0000 0.0000 0.0000 -19.4789 -7.8890 -3.4254 1.3262 7.2931 20.5867 1.1162 18.0124 -33.3168 0.1950 2.8437 7.8440 0.0000 0.0000 0.0000 22.9238 20.7071 -5.2450 -2.0334 -8.9353 25.5932 -0.5041 -12.1417 -22.7585 -0.0086 -0.5990 1.6461 0.1443 0.1604 5.1140 0.7170 0.2287 0.5431 0.6399 0.1110 -2.3106 -6.5357 -3.4035 -8.8020 2.5846 -4.5638 22.0275 1.4874 -2.5850 8.5077 0.0000 0.0000 0.0000 -90.2430 1.6081 11.3454 13.2520 -21.6554 -2.5455 -0.0000 -0.0000 8.9888 22.7331 24.0947 9.7065 -7.1250 0.0000 -0.0000 -7.1672 55.7043 -1.8896 0.0000 0.0000 0.0000 81.8060 -5.2025 25.6558 -16.5601 26.2742 -3.8906 0.0000 0.0000 15.6719 -17.1530 5.2202 -1.6086 7.1250 -0.0000 -0.0000 7.1058 -24.5196 3.5421
7.5087 18.7646 4.7806 1.7304 -85.0747 1.2385 0.0000 0.0000 0.0000 -19.2627 -6.4906 -3.5574 1.3057 7.2386 20.4242 1.0812 18.0536 -33.1512 0.1471 2.4720 6.8120 0.0000 0.0000 0.0000 23.1874 21.1825 -5.1950 -2.0822 -9.0353 25.9058 -0.5418 -11.5955 -22.5340 -0.0055 -0.4772 1.3112 -0.4033 -0.1969 4.8819 0.9234 -0.2702 0.3517 1.1940 -0.1301 -2.3688 -7.4424 -4.1418 -8.5990 2.1347 -5.5165 24.0058 1.3722 -3.2178 9.2224 0.0000 -0.0000 0.0000 -90.5735 2.5163 10.8963 14.1194 -22.9051 -2.8744 -0.0000 -0.0000 7.4561 23.1101 24.0765 9.8758 -7.1250 0.0000 -0.0000 -6.7616 55.7635 -1.7917 0.0000 -0.0000 0.0000 81.7962 -4.7437 25.8336 -17.0518 26.9260 -4.1108 0.0000 0.0000 16.0896 -16.6501 5.3905 -1.6093 7.1250 -0.0000 -0.0000 7.4731 -24.3580 3.7563
7.4389 18.7539 4.7409 6.0757 -86.5887 -3.2046 0.0000 0.0000 0.0000 -19.5614 -6.0177 -2.9371 1.2715 7.1468 20.1511 1.2201 18.4186 -34.3312 0.1806 2.7374 7.5485 0.0000 0.0000 0.0000 23.0255 20.9214 -5.3333 -2.1354 -9.1426 26.2425 -0.6680 -9.9405 -22.0837 -0.0087 -0.6011 1.6517 -0.6809 -0.4492 4.6743 0.9783 -0.6186 0.2755 1.4283 -0.3002 -2.3191 -7.5773 -4.5608 -8.0997 1.4185 -6.0738 25.0547 1.0843 -3.6146 9.5143 0.0000 -0.0000 0.0000 -90.5516 3.0169 10.9066 14.4092 -23.3167 -2.9882 -0.0000 -0.0000 7.1605 22.9401 23.9817 9.7607 -7.1250 0.0000 -0.0000 -6.9043 55.6297 -1.8073 0.0000 -0.0000 0.0000 81.7355 -4.4550 26.0532 -17.8917 28.0183 -4.4982 0.0000 0.0000 15.4294 -17.0430 4.6042 -1.4096 7.1250 -0.0000 -0.0000 7.2130 -25.1616 3.4881
7.3513 18.7391 4.7135 -16.4577 -88.1297 19.1168 0.0000 0.0000 0.0000 -18.7085 -5.5547 -2.5083 1.3301 7.3033 20.6171 1.5353 18.4128 -36.0642 0.2362 3.1279 8.6350 0.0000 0.0000 0.0000 24.1502 20.7449 -4.8294 -2.0942 -9.0596 25.9818 -0.7450 -8.4307 -21.4686 -0.0121 -0.7101 1.9516 0.7203 -0.7087 4.4036 1.0976 -0.8940 0.2683 0.7787 -0.4525 -2.1861 -7.2927 -4.8186 -7.5779 0.8234 -6.4808 25.6702 0.7892 -3.8801 9.6249 -0.0000 0.0000 0.0000 -90.0821 3.5193 11.4704 14.3902 -23.2898 -2.9807 -0.0000 -0.0000 7.1606 23.2389 23.9206 9.8768 -7.1250 0.0000 -0.0000 -6.5651 55.6278 -1.7177 -0.0000 0.0000 0.0000 81.9623 -4.3496 25.8436 -18.9674 29.3782 -5.0149 0.0000 0.0000 15.2648 -16.4237 4.4390 -1.3069 7.1250 -0.0000 -0.0000 7.6846 -25.3471 3.6865
7.2593 18.7165 4.6559 -102.0380 -89.2945 104.5490 0.0000 0.0000 0.0000 -18.4695 -3.8940 -2.4383 1.3431 7.3376 20.7195 1.5119 18.8266 -36.3338 0.1768 2.7086 7.4685 0.0000 0.0000 0.0000 24.5124 20.6327 -4.6959 -2.1229 -9.1175 26.1637 -0.8077 -6.8184 -20.7828 -0.0038 -0.3980 1.0936 0.9008 -0.9100 4.1383 1.2618 -1.1545 0.1975 0.8583 -0.5840 -2.1083 -7.8053 -4.7379 -7.1277 0.8789 -6.4315 26.2554 0.8993 -3.9421 9.7709 -0.0000 0.0000 0.0000 -90.0082 4.2327 10.8719 14.1749 -22.9842 -2.8960 -0.0000 -0.0000 8.2727 22.6626 23.6183 9.4968 -7.1250 0.0000 -0.0000 -7.0557 55.1955 -1.7727 -0.0000 0.0000 0.0000 81.6524 -4.5383 27.1381 -20.0533 30.7065 -5.5585 0.0000 0.0000 13.1506 -17.2186 4.1383 -1.2812 7.1250 -0.0000 -0.0000 7.1018 -25.6411 3.3536
